<?xml version="1.0" encoding="UTF-8" standalone="no"?>
<!-- Created with Inkscape (http://www.inkscape.org/) -->

<svg
   xmlns:dc="http://purl.org/dc/elements/1.1/"
   xmlns:cc="http://creativecommons.org/ns#"
   xmlns:rdf="http://www.w3.org/1999/02/22-rdf-syntax-ns#"
   xmlns:svg="http://www.w3.org/2000/svg"
   xmlns="http://www.w3.org/2000/svg"
   xmlns:sodipodi="http://sodipodi.sourceforge.net/DTD/sodipodi-0.dtd"
   xmlns:inkscape="http://www.inkscape.org/namespaces/inkscape"
   version="1.1"
   id="svg10"
   width="476.38284"
   height="224.93413"
   viewBox="0 0 476.38284 224.93413"
   sodipodi:docname="projector.svg"
   inkscape:version="0.92.1 r15371">
  <metadata
     id="metadata16">
    <rdf:RDF>
      <cc:Work
         rdf:about="">
        <dc:format>image/svg+xml</dc:format>
        <dc:type
           rdf:resource="http://purl.org/dc/dcmitype/StillImage" />
        <dc:title></dc:title>
      </cc:Work>
    </rdf:RDF>
  </metadata>
  <defs
     id="defs14" />
  <sodipodi:namedview
     pagecolor="#ffffff"
     bordercolor="#666666"
     borderopacity="1"
     objecttolerance="10"
     gridtolerance="10"
     guidetolerance="10"
     inkscape:pageopacity="0"
     inkscape:pageshadow="2"
     inkscape:window-width="1920"
     inkscape:window-height="1027"
     id="namedview12"
     showgrid="false"
     fit-margin-top="0"
     fit-margin-left="0"
     fit-margin-right="0"
     fit-margin-bottom="0"
     inkscape:zoom="2.0961195"
     inkscape:cx="247.9865"
     inkscape:cy="105.28942"
     inkscape:window-x="1912"
     inkscape:window-y="-8"
     inkscape:window-maximized="1"
     inkscape:current-layer="svg10" />
  <path
     style="fill:#000000"
     d="m 42.882838,224.0606 c -3.84535,-1.44492 -7.04552,-4.69836 -8.10729,-8.24224 -0.9937,-3.31666 -1.66156,-3.95789 -4.719866,-4.53163 C 19.883075,209.37834 8.8070276,200.06572 3.5759716,189.02288 l -3.19313296,-6.74075 -0.307303,-66 c -0.21788696,-46.796001 0.02739,-67.736131 0.84295,-71.966681 C 3.3590636,31.655518 11.620967,21.169728 23.642087,15.475259 l 6.740752,-3.19313 106.218871,-0.27199 106.21886,-0.27199 -11.24669,11.271989 c -15.79677,15.832301 -25.24447,30.947851 -31.59054,50.542281 -4.53674,14.00787 -5.6005,21.3642 -5.6005,38.729711 0,17.33819 1.06508,24.7254 5.57094,38.63924 6.30685,19.4752 16.75622,36.01057 32.61491,51.61076 l 10.41985,10.25 H 160.18461 77.380678 l -1.99892,4.13445 c -3.12423,6.462 -6.76675,7.88132 -19.98332,7.7866 -6.05858,-0.0434 -11.6906,-0.33258 -12.5156,-0.64258 z M 159.38284,118.28213 c 0,-1.9751 -0.75263,-2.00321 -60.442111,-2.25788 -36.789341,-0.15697 -60.810241,0.11023 -61.382791,0.68278 -0.51737,0.51737 -0.6687,1.6494 -0.33629,2.51564 0.54235,1.41334 6.8419,1.54852 61.382791,1.31722 60.025811,-0.25457 60.778401,-0.28252 60.778401,-2.25776 z m 0,-19.999997 c 0,-1.9751 -0.75263,-2.00322 -60.442111,-2.25789 -36.789341,-0.15696 -60.810241,0.11023 -61.382791,0.68279 -0.51737,0.51736 -0.6687,1.6494 -0.33629,2.51564 0.54235,1.413337 6.8419,1.548517 61.382791,1.317217 60.025811,-0.25457 60.778401,-0.28252 60.778401,-2.257757 z m 0,-20.000004 c 0,-1.9751 -0.75263,-2.00322 -60.442111,-2.25789 -36.789341,-0.15696 -60.810241,0.11023 -61.382791,0.68279 -0.51737,0.51736 -0.6687,1.6494 -0.33629,2.51564 0.54235,1.41333 6.8419,1.54852 61.382791,1.31721 60.025811,-0.25456 60.778401,-0.28252 60.778401,-2.25775 z m 0,-20 c 0,-1.9751 -0.75263,-2.00322 -60.442111,-2.25789 -36.789341,-0.15696 -60.810241,0.11023 -61.382791,0.68279 -0.51737,0.51736 -0.6687,1.6494 -0.33629,2.51564 0.54235,1.41333 6.8419,1.54852 61.382791,1.31721 60.025811,-0.25456 60.778401,-0.28252 60.778401,-2.25775 z M 305.09125,223.78159 c -30.8251,-4.34754 -57.75207,-20.34782 -76.42722,-45.41382 -28.58201,-38.36309 -28.58701,-93.801031 -0.0119,-132.155201 31.53508,-42.3271503 85.67762,-57.473351 134.06115,-37.50317 14.35174,5.92365 26.42565,14.364339 38.18361,26.693609 14.61407,15.324151 23.66378,32.582211 28.65914,54.653821 2.2381,9.888834 2.2381,34.561771 0,44.450601 -5.34335,23.60919 -14.37303,40.1102 -31.10534,56.84252 -16.79844,16.79844 -33.93813,26.14636 -56.84252,31.00172 -8.86017,1.87821 -28.01914,2.62844 -36.51689,1.42992 z m 32.53255,-33.54692 c 29.08829,-6.61642 52.71047,-30.3537 59.91961,-60.21158 2.38711,-9.88663 2.11333,-27.54497 -0.58516,-37.740961 -7.27948,-27.50492 -28.06506,-48.85116 -55.57541,-57.074501 -7.59799,-2.27118 -10.94723,-2.70013 -21.5,-2.75362 -13.23441,-0.0671 -19.76971,1.13601 -31.15779,5.735861 -32.92913,13.30066 -53.60561,48.72321 -48.93351,83.831941 6.33727,47.62172 51.1112,78.84004 97.83226,68.21286 z M 349.10102,88.174849 c -12.6311,-6.44041 -9.52803,-25.2002 4.47915,-27.07895 10.92013,-1.4647 19.49184,10.1633 14.79238,20.06668 -3.42537,7.21842 -12.43658,10.4973 -19.27153,7.01227 z m 12.32727,-6.84727 c 5.39273,-5.39273 1.58863,-14.54545 -6.04545,-14.54545 -4.87658,0 -8.5,3.62342 -8.5,8.5 0,4.87657 3.62342,8.5 8.5,8.5 2.47924,0 4.35079,-0.75988 6.04545,-2.45455 z m 38.9895,140.189501 c -6.37115,-6.37115 -6.1082,-7.19991 6.15885,-19.41102 5.98042,-5.95316 13.25005,-14.31469 16.15471,-18.58118 7.76004,-11.39826 14.81928,-26.95032 18.36304,-40.45525 2.85997,-10.89908 3.10046,-13.10646 3.19077,-29.2875 0.10652,-19.084641 -0.81085,-25.743761 -5.5708,-40.437741 -6.33571,-19.55834 -15.65806,-34.43429 -31.577,-50.388291 l -11.30112,-11.326019 25.3293,0.32602 25.3293,0.32603 7.55256,3.734719 c 9.09698,4.49843 14.76807,10.29221 19.17092,19.58567 l 3.16452,6.679611 v 70.000001 70 l -3.19313,6.74075 c -5.62195,11.86802 -15.97373,20.11391 -28.49873,22.70116 -5.14604,1.063 -5.79612,1.49164 -6.77902,4.46987 -0.59794,1.81177 -2.23397,4.37279 -3.63563,5.69117 -2.39638,2.254 -3.38075,2.4165 -16.49497,2.72305 l -13.94652,0.326 z"
     id="path20"
     inkscape:connector-curvature="0" />
</svg>
